<?xml version="1.0" encoding="UTF-8"?>
<svg id="Camada_7" data-name="Camada 7" xmlns="http://www.w3.org/2000/svg" viewBox="0 0 729.78 612.26">
  <defs>
    <style>
      .cls-1 {
        fill: #061c6d;
      }

      .cls-2 {
        fill: #f7cb41;
      }

      .cls-3 {
        fill: #00a5d7;
      }
    </style>
  </defs>
  <g>
    <g>
      <path class="cls-1" d="M366.62,490.23h12.11c9.11,0,15.94,6.74,15.94,15.71s-6.83,15.71-15.94,15.71h-12.11v-31.42ZM370.81,494.14v23.59h7.88c6.65,0,11.7-5.06,11.7-11.79s-5.06-11.79-11.7-11.79h-7.88Z"/>
      <path class="cls-1" d="M400.37,490.23h4.19v31.42h-4.19v-31.42Z"/>
      <path class="cls-1" d="M410.16,512.77h4.24c0,3.23,3.1,5.69,7.06,5.69,3.73,0,6.74-2.09,6.74-5.19,0-7.29-17.49-3.92-17.49-14.62,0-5.46,4.74-8.97,10.57-8.97s10.61,3.87,10.61,9.02h-4.24c0-3.01-2.78-5.28-6.47-5.28-3.37,0-6.19,1.91-6.19,4.92,0,7.24,17.49,3.6,17.49,14.48,0,5.69-4.92,9.38-11.07,9.38s-11.25-4.1-11.25-9.43Z"/>
      <path class="cls-1" d="M443.99,494.14h-9.47v-3.92h23.13v3.92h-9.47v27.51h-4.19v-27.51Z"/>
      <path class="cls-1" d="M462.67,490.23h13.43c5.6,0,9.84,4.1,9.84,9.56,0,5.05-3.69,8.88-8.74,9.34l4.24,6.06c1.23,1.73,2.73,2.55,4.46,2.55h1.05v3.92h-1.5c-3.42,0-6.06-1.46-7.88-4.51l-5.28-7.97h-5.42v12.48h-4.19v-31.42ZM466.86,494.14v11.38h9.2c3.19,0,5.6-2.41,5.6-5.69s-2.41-5.69-5.6-5.69h-9.2Z"/>
      <path class="cls-1" d="M491.67,490.23h4.19v31.42h-4.19v-31.42Z"/>
      <path class="cls-1" d="M503.24,490.23h14.21c4.55,0,8.06,3.32,8.06,7.88,0,3.1-1.73,5.74-4.01,6.83,3.51.91,5.92,4.23,5.92,8.24,0,4.87-3.69,8.47-8.65,8.47h-15.53v-31.42ZM507.29,494.01v9.56h9.2c2.55,0,4.74-2.05,4.74-4.78s-2.05-4.78-4.74-4.78h-9.2ZM507.29,507.17v10.7h10.52c3.05,0,5.33-2.32,5.33-5.37s-2.28-5.33-5.33-5.33h-10.52Z"/>
      <path class="cls-1" d="M531.75,509.63v-19.4h4.14v19.31c0,4.92,3.69,8.65,8.61,8.65s8.65-3.73,8.65-8.65v-19.31h4.14v19.4c0,7.15-5.51,12.57-12.8,12.57s-12.75-5.42-12.75-12.57Z"/>
      <path class="cls-1" d="M563.99,490.23h4.19v31.42h-4.19v-31.42Z"/>
      <path class="cls-1" d="M575.56,490.23h12.11c9.11,0,15.94,6.74,15.94,15.71s-6.83,15.71-15.94,15.71h-12.11v-31.42ZM579.75,494.14v23.59h7.88c6.65,0,11.7-5.06,11.7-11.79s-5.06-11.79-11.7-11.79h-7.88Z"/>
      <path class="cls-1" d="M607.66,505.94c0-9.24,7.1-16.26,16.44-16.26s16.44,7.01,16.44,16.26-7.06,16.26-16.44,16.26-16.44-7.01-16.44-16.26ZM636.26,505.94c0-6.97-5.24-12.25-12.16-12.25s-12.16,5.28-12.16,12.25,5.24,12.25,12.16,12.25,12.16-5.28,12.16-12.25Z"/>
      <path class="cls-1" d="M646.28,490.23h13.43c5.6,0,9.84,4.1,9.84,9.56,0,5.05-3.69,8.88-8.74,9.34l4.24,6.06c1.23,1.73,2.73,2.55,4.46,2.55h1.05v3.92h-1.5c-3.42,0-6.06-1.46-7.88-4.51l-5.28-7.97h-5.42v12.48h-4.19v-31.42ZM650.47,494.14v11.38h9.2c3.19,0,5.6-2.41,5.6-5.69s-2.41-5.69-5.6-5.69h-9.2Z"/>
      <path class="cls-1" d="M685.03,490.23h4.96l12.8,31.42h-4.6l-3.05-7.6h-15.39l-3.05,7.6h-4.46l12.8-31.42ZM693.59,510.17l-6.15-15.39-6.15,15.39h12.3Z"/>
    </g>
    <g>
      <path class="cls-1" d="M348.61,546.32h20.13v3.92h-15.94v9.74h14.44v3.92h-14.44v9.93h16.17v3.92h-20.36v-31.42Z"/>
      <path class="cls-1" d="M384.18,568.86h4.24c0,3.23,3.1,5.69,7.06,5.69,3.73,0,6.74-2.09,6.74-5.19,0-7.29-17.49-3.92-17.49-14.62,0-5.46,4.74-8.97,10.57-8.97s10.61,3.87,10.61,9.02h-4.24c0-3.01-2.78-5.28-6.47-5.28-3.37,0-6.19,1.91-6.19,4.92,0,7.24,17.49,3.6,17.49,14.48,0,5.69-4.92,9.38-11.07,9.38s-11.25-4.1-11.25-9.43Z"/>
      <path class="cls-1" d="M412.1,546.32h20.13v3.92h-15.94v9.74h14.44v3.92h-14.44v9.93h16.17v3.92h-20.36v-31.42Z"/>
      <path class="cls-1" d="M438.19,546.32h13.43c5.6,0,9.84,4.1,9.84,9.56,0,5.06-3.69,8.88-8.74,9.34l4.24,6.06c1.23,1.73,2.73,2.55,4.46,2.55h1.05v3.92h-1.5c-3.42,0-6.06-1.46-7.88-4.51l-5.28-7.97h-5.42v12.48h-4.19v-31.42ZM442.38,550.23v11.38h9.2c3.19,0,5.6-2.41,5.6-5.69s-2.41-5.69-5.6-5.69h-9.2Z"/>
      <path class="cls-1" d="M463.37,546.32h4.64l10.52,26.09,7.15-17.53c1.37-3.42,1.87-6.15,1.32-8.56h4.37c.55,2.69-.09,5.74-1.68,9.65l-9.02,21.77h-4.37l-12.93-31.42Z"/>
      <path class="cls-1" d="M496.53,546.32h4.19v31.42h-4.19v-31.42Z"/>
      <path class="cls-1" d="M518.43,584.21h2.46c.27.96,1.09,1.64,2.19,1.64,1.23,0,2.23-.96,2.23-2.19s-1.05-2.23-2.23-2.23c-.68,0-1.28.32-1.59.64l-2.23-1,2.19-2.82c-8.61-.68-14.98-7.47-14.98-16.21,0-9.24,7.1-16.26,16.44-16.26,7.65,0,13.84,4.78,15.53,11.52h-4.42c-1.55-4.46-5.87-7.51-11.11-7.51-6.92,0-12.16,5.28-12.16,12.25s5.24,12.25,12.16,12.25c5.24,0,9.56-3.05,11.11-7.51h4.42c-1.59,6.37-7.15,10.97-14.21,11.48l-.86,1.09h.23c2.37,0,4.19,1.87,4.19,4.33s-2.05,4.42-4.69,4.42c-2.46,0-4.42-1.64-4.64-3.87Z"/>
      <path class="cls-1" d="M542.29,562.03c0-9.24,7.1-16.26,16.44-16.26s16.44,7.01,16.44,16.26-7.06,16.26-16.44,16.26-16.44-7.01-16.44-16.26ZM570.89,562.03c0-6.97-5.24-12.25-12.16-12.25s-12.16,5.28-12.16,12.25,5.24,12.25,12.16,12.25,12.16-5.28,12.16-12.25Z"/>
      <path class="cls-1" d="M579.14,568.86h4.24c0,3.23,3.1,5.69,7.06,5.69,3.73,0,6.74-2.09,6.74-5.19,0-7.29-17.49-3.92-17.49-14.62,0-5.46,4.74-8.97,10.57-8.97s10.61,3.87,10.61,9.02h-4.24c0-3.01-2.78-5.28-6.47-5.28-3.37,0-6.19,1.91-6.19,4.92,0,7.24,17.49,3.6,17.49,14.48,0,5.69-4.92,9.38-11.07,9.38s-11.25-4.1-11.25-9.43Z"/>
    </g>
  </g>
  <g>
    <path class="cls-1" d="M228.01,557.25v-118.56c0-17.07,4.42-33.92,13.29-48.51,9.79-16.1,26.3-31.85,53.54-32.62,56.49-1.59,163.09,0,163.09,0,0,0,.15,4.03-.68,10.44-5.8,44.65-44.19,77.87-89.22,77.87h-45.25s-.9,31.82-.9,31.82c0,0-2.39,66.83-93.88,79.56Z"/>
    <g>
      <path class="cls-1" d="M135.47,134.63h-38.59c-31.51,0-56.31,30.36-59.9,56.62,0,.02-1.11,8.88-1.11,8.88-.2,79.29,63.62,134.72,142.42,134.72l141.62-.11c0-69.42-46.91-80.08-96.5-80.13l-36.86-.49c-34.16,0-62.75-30.55-62.75-64.93,0,0-.4-28.57,11.67-54.56Z"/>
      <path class="cls-3" d="M239,114.28c32.6,0,71.04-25.93,78.8-63.14,0,0,4.12-24.24,3.48-26.96l-145.78.3c-60.6.17-134.15,43.86-137.73,117.94,0,0,12.73-14.82,30.63-20.78,45.88-15.29,170.6-7.36,170.6-7.36Z"/>
    </g>
    <path class="cls-2" d="M220.9,254.54s21.41,78.47,77.9,80.63c56.49,2.16,158.32,0,158.32,0,0,0-3.33-33.6-25.92-57.46-13.68-14.45-33.81-22.58-54.84-22.65l-155.45-.53Z"/>
  </g>
</svg>